<?xml version="1.0" encoding="UTF-8"?>
<svg width="83px" height="75px" viewBox="0 0 83 75" version="1.1" xmlns="http://www.w3.org/2000/svg" xmlns:xlink="http://www.w3.org/1999/xlink">
    <!-- Generator: Sketch 52.2 (67145) - http://www.bohemiancoding.com/sketch -->
    <title>ic_mi_entel_app_mobile@3x</title>
    <desc>Created with Sketch.</desc>
    <defs>
        <polygon id="path-1" points="0 0.392390259 82.8316934 0.392390259 82.8316934 74.0494949 0 74.0494949"></polygon>
    </defs>
    <g id="Page-1" stroke="none" stroke-width="1" fill="none" fill-rule="evenodd">
        <g id="ic_mi_entel_app_mobile">
            <g id="Group-8">
                <g id="Group-3" transform="translate(0.000000, 0.152455)">
                    <mask id="mask-2" fill="white">
                        <use xlink:href="#path-1"></use>
                    </mask>
                    <g id="Clip-2"></g>
                    <path d="M0.791912656,26.27578 L13.9585615,69.7484091 C14.8458342,72.6777289 17.775139,74.4843242 20.7865383,73.9588979 L77.8193636,64.0139119 C80.8247825,63.4895746 82.9711996,60.8041833 82.8249519,57.7523549 L80.3452638,6.16093651 C80.1854242,2.82978818 77.3686595,0.25438256 74.0413868,0.398126129 L17.3847825,2.8357775 C5.53653832,3.34541379 -2.64953119,14.9102373 0.791912656,26.27578" id="Fill-1" fill="#005CFF" mask="url(#mask-2)"></path>
                </g>
                <path d="M60.0388966,22.7322833 C59.5539412,22.3936147 58.8042175,22.4507854 58.3736292,22.8477137 L55.5981836,25.3942617 C55.166508,25.7950014 55.1985847,26.4102674 55.672123,26.7554698 C55.672123,26.7554698 59.9502781,29.9047607 59.9502781,36.6715981 C59.9502781,43.0921442 55.4470428,46.7826515 55.4470428,46.7826515 C54.9892709,47.1588894 54.9724171,47.7910344 55.4073547,48.1895961 L58.1567041,50.6974858 C58.584574,51.0933251 59.3419091,51.1510403 59.8268645,50.8167276 C59.8268645,50.8167276 66.2851444,46.4107694 66.2851444,36.6939219 C66.2851444,27.0467683 60.0388966,22.7322833 60.0388966,22.7322833" id="Fill-4" fill="#FF3D00"></path>
                <path d="M43.9512068,30.2656986 C43.0949234,28.4367795 41.3067861,27.0761159 38.5938627,27.0761159 C35.8852888,27.0761159 34.0993262,28.4367795 33.2348877,30.2656986 C32.7385152,31.3878785 32.553123,32.2160375 32.4944064,33.5701673 L44.6933191,33.5701673 C44.6318841,32.2160375 44.4426863,31.3878785 43.9512068,30.2656986 Z M33.3115455,38.8298752 C33.3115455,38.8298752 32.5101729,38.754192 32.5101729,39.3983156 C32.5101729,43.0664991 35.2372317,45.6778406 39.5142995,45.6778406 C42.6936934,45.6778406 44.0496114,44.9182865 45.9736667,43.474317 C46.4205651,43.135104 46.8957344,42.8236596 47.261082,43.2184099 C47.5122585,43.4906515 50.883025,46.6127183 50.883025,46.6127183 C51.3049144,47.0074686 51.1891123,47.4817135 50.7367772,47.8661186 C50.2882478,48.2461679 45.2484082,52.1778812 39.4577576,52.1778812 C31.8746203,52.1778812 24.6089875,48.8685122 24.6089875,36.4058359 C24.6089875,26.3666543 30.278943,20.697495 38.5938627,20.697495 C47.5307433,20.697495 52.5792816,26.9585075 52.5792816,35.4023533 L52.5792816,37.5378165 C52.5792816,38.4068117 51.8746827,38.8298752 51.2934973,38.8298752 L33.3115455,38.8298752 Z" id="Fill-6" fill="#FFFFFF"></path>
            </g>
        </g>
    </g>
</svg>