<?xml version="1.0" encoding="UTF-8"?>
<svg width="75px" height="74px" viewBox="0 0 75 74" version="1.1" xmlns="http://www.w3.org/2000/svg" xmlns:xlink="http://www.w3.org/1999/xlink">
    <!-- Generator: Sketch 52.2 (67145) - http://www.bohemiancoding.com/sketch -->
    <title>ic_onepay_app_mobile@3x</title>
    <desc>Created with Sketch.</desc>
    <defs>
        <polygon id="path-1" points="1.46328739e-05 0.56116968 74.4375 0.56116968 74.4375 74 1.46328739e-05 74"></polygon>
    </defs>
    <g id="ic_onepay_app_mobile" stroke="none" stroke-width="1" fill="none" fill-rule="evenodd">
        <g id="Group-8" transform="translate(0.181818, 0.000000)">
            <g id="Group-3">
                <mask id="mask-2" fill="white">
                    <use xlink:href="#path-1"></use>
                </mask>
                <g id="Clip-2"></g>
                <path d="M37.1360156,63.8285844 C52.0528125,63.7881156 64.0785937,51.9816469 64.1254687,37.2868656 C64.1735156,22.5516156 52.1242969,10.6387719 37.2180469,10.6098656 C22.3176563,10.5798031 10.2063281,22.5053656 10.2004688,37.2024594 C10.1946094,51.9088031 22.22625,63.7777094 37.1360156,63.8285844 M37.1922656,0.565521875 C43.6610156,0.565521875 50.1285937,0.549334375 56.5973437,0.579396875 C57.7633594,0.585178125 58.929375,0.753990625 60.0930469,0.880021875 C61.2438281,1.00489687 62.3442187,1.35408437 63.410625,1.77380312 C64.2098437,2.08945938 64.9750781,2.49414688 65.7297656,2.90577188 C67.2766406,3.74405312 68.6149219,4.84942813 69.8114062,6.12477188 C70.9914844,7.38045938 71.9430469,8.79224062 72.6789844,10.3358344 C73.1723437,11.3695219 73.5485156,12.4494594 73.8215625,13.5687094 C74.0899219,14.6717719 74.1403125,15.7933344 74.2832812,16.9091156 C74.5352344,18.8689594 74.4028125,20.8299594 74.4063281,22.7886469 C74.4274219,34.0539906 74.4297656,45.3193344 74.4028125,56.5846781 C74.3992969,57.7097094 74.1825,58.8382094 74.0172656,59.9574594 C73.9235156,60.5876156 73.7840625,61.2223969 73.573125,61.8236469 C73.2403125,62.7717719 72.8746875,63.7152719 72.43875,64.6229281 C71.7801562,65.9873031 70.8813281,67.2048344 69.8465625,68.3206156 C68.7848437,69.4641469 67.6141406,70.4851156 66.2617969,71.2759906 C65.4461719,71.7535219 64.5801562,72.1501156 63.7223437,72.5548031 C62.6617969,73.0566156 61.5379687,73.3792094 60.3766406,73.5491781 C59.5610156,73.6694281 58.7301562,73.7018031 57.9180469,73.8393969 C56.3594531,74.1064906 54.7938281,73.9596469 53.2340625,73.9631156 C44.360625,73.9804594 35.4860156,73.9723656 26.6125781,73.9654281 C25.3434375,73.9642719 24.0742969,73.9018344 22.8063281,73.8937406 C22.0996875,73.8902719 21.391875,73.9677406 20.6864062,73.9631156 C19.5157031,73.9561781 18.3426562,73.9492406 17.1766406,73.8740844 C16.0094531,73.7966156 14.8364062,73.6960219 13.6879687,73.4902094 C12.6578906,73.3063656 11.6430469,73.0080531 10.6891406,72.5571156 C9.91921875,72.1928969 9.12117187,71.8749281 8.39578125,71.4390219 C7.14304687,70.6874594 5.98875,69.7959906 4.95867187,68.7565219 C4.0246875,67.8141781 3.21375,66.7781781 2.52351563,65.6577719 C2.08640625,64.9501469 1.71140625,64.1939594 1.40554688,63.4215844 C1.02234375,62.4503344 0.68953125,61.4513344 0.429375,60.4419281 C0.24890625,59.7423969 0.203203125,59.0035531 0.14109375,58.2797406 C-0.082734375,55.6874281 0.027421875,53.0893344 0.025078125,50.4935531 C0.013359375,39.6849281 0.00984375,28.8763031 0.03328125,18.0688344 C0.036796875,16.8987094 0.21609375,15.7274281 0.348515625,14.5619281 C0.475078125,13.4473031 0.82078125,12.3789281 1.24148438,11.3452406 C1.56492188,10.5485844 1.98914063,9.79008437 2.40046875,9.03042813 C2.99226563,7.93892812 3.76453125,6.96883437 4.6059375,6.05770938 C5.63132813,4.94655312 6.78914062,3.97992812 8.09578125,3.21217812 C8.9184375,2.72886562 9.77742187,2.28949063 10.6575,1.91949063 C11.4567187,1.58302187 12.3039844,1.34945938 13.1383594,1.10086563 C14.3172656,0.750521875 15.5371875,0.685771875 16.7571094,0.627959375 C17.2586719,0.603678125 17.7602344,0.567834375 18.2617969,0.567834375 C24.5723437,0.563209375 30.8828906,0.565521875 37.1922656,0.565521875" id="Fill-1" fill="#FFBA46" mask="url(#mask-2)"></path>
            </g>
            <path d="M23,37.3351723 C23.0614075,37.9048602 23.123996,38.7992468 23.2633438,39.6807393 C23.3767116,40.3969519 23.5325922,41.1155089 23.7581468,41.8035887 C24.1041545,42.8573942 24.5623492,43.8666561 25.1350924,44.8290302 C25.9794459,46.2485612 27.021012,47.5028124 28.2869518,48.5624789 C29.6390982,49.6948215 31.1553918,50.5399759 32.840556,51.104975 C34.2328535,51.5715096 35.6617594,51.7848495 37.1107408,51.7731275 C38.2774838,51.7660943 39.4395031,51.6207419 40.5779042,51.2901822 C41.5734147,51.0018216 42.5323168,50.6372682 43.4333541,50.1426009 C45.2425143,49.1485776 46.7635315,47.8134447 48.0023102,46.1676796 C49.1407113,44.6543728 49.9496373,42.9757861 50.4597922,41.163569 C50.8117045,39.9069734 51.0278118,38.6175562 50.997108,37.3117284 C50.9723088,36.2637839 50.8553983,35.2123228 50.7325833,34.1690672 C50.6038637,33.0789236 50.2543131,32.0380123 49.8244604,31.0334392 C49.3048583,29.8202149 48.6482702,28.6820112 47.826354,27.6340667 C46.9914479,26.5685393 46.0301839,25.64602 44.9437431,24.8430648 C44.0651431,24.1936674 43.1239547,23.6474234 42.1071878,23.2535651 C41.3549456,22.961688 40.5708187,22.7342817 39.7831491,22.5502467 C39.1596265,22.4048942 38.5101239,22.3650395 37.8712494,22.2829857 C36.8355879,22.1528718 35.8034691,22.2677471 34.7867022,22.4201328 C33.5006869,22.6135453 32.2689936,23.027331 31.0998888,23.6099131 C30.0347044,24.1432629 29.0179375,24.7586666 28.1558703,25.5803769 C27.4284273,26.2719734 26.7257835,26.9987358 26.08809,27.7700416 C25.3405715,28.6761502 24.7595618,29.6994785 24.3108145,30.7872777 C24.0687271,31.376893 23.8349062,31.9747137 23.6648546,32.5866007 C23.4452046,33.3813505 23.2515347,34.1878223 23.1275387,35.0013273 C23.027161,35.6601022 23.0484175,36.3376323 23,37.3351723 M36.9729423,64 C22.0424782,63.9483793 9.99413463,51.9055042 10.0000021,36.9824286 C10.0046961,22.0699118 22.1340113,9.97072327 37.0539139,10.0000532 C51.9808575,10.0305564 64.0468036,22.1168397 63.9998635,37.0680721 C63.9529234,51.9782425 51.9104474,63.9577649 36.9729423,64" id="Fill-4" fill="#1E1819"></path>
            <path d="M23,37.340309 C23.0484175,36.3274811 23.027161,35.6395674 23.1275387,34.9706963 C23.2515347,34.1447238 23.4452046,33.3258923 23.6648546,32.5189624 C23.8349062,31.8976978 24.0687271,31.2907151 24.3108145,30.6920636 C24.7595618,29.5875931 25.3405715,28.5485816 26.08809,27.6285863 C26.7257835,26.8454597 27.4284273,26.1075592 28.1558703,25.4053635 C29.0179375,24.5710599 30.0347044,23.9462248 31.0998888,23.4047011 C32.2689936,22.8131905 33.5006869,22.3930633 34.7867022,22.1966865 C35.8034691,22.0419655 36.8355879,21.9253296 37.8712494,22.0574376 C38.5101239,22.1407489 39.1596265,22.1812144 39.7831491,22.3287945 C40.5708187,22.51565 41.3549456,22.7465414 42.1071878,23.0428918 C43.1239547,23.4427862 44.0651431,23.9974018 44.9437431,24.6567516 C46.0301839,25.4720126 46.9914479,26.4086702 47.826354,27.4905275 C48.6482702,28.5545324 49.3048583,29.7101798 49.8244604,30.9419976 C50.2543131,31.9619665 50.6038637,33.0188305 50.7325833,34.1256812 C50.8553983,35.1849255 50.9723088,36.2525009 50.997108,37.3165058 C51.0278118,38.6423464 50.8117045,39.9515247 50.4597922,41.2273785 C49.9496373,43.0673691 49.1407113,44.7716812 48.0023102,46.3081804 C46.7635315,47.979168 45.2425143,49.3347627 43.4333541,50.3440201 C42.5323168,50.8462685 41.5734147,51.2164089 40.5779042,51.5091888 C39.4395031,51.8448145 38.2774838,51.9923946 37.1107408,51.9995356 C35.6617594,52.0114372 34.2328535,51.7948277 32.840556,51.3211432 C31.1553918,50.7474851 29.6390982,49.8893782 28.2869518,48.7396816 C27.021012,47.6637751 25.9794459,46.3903016 25.1350924,44.9490153 C24.5623492,43.9718923 24.1041545,42.9471627 23.7581468,41.877207 C23.5325922,41.1785818 23.3767116,40.4490124 23.2633438,39.7218234 C23.123996,38.8268215 23.0614075,37.9187278 23,37.340309" id="Fill-6" fill="#FFBA46"></path>
        </g>
    </g>
</svg>