<?xml version="1.0" encoding="UTF-8"?>
<svg width="155px" height="138px" viewBox="0 0 155 138" version="1.1" xmlns="http://www.w3.org/2000/svg" xmlns:xlink="http://www.w3.org/1999/xlink">
    <!-- Generator: Sketch 52.2 (67145) - http://www.bohemiancoding.com/sketch -->
    <title>ic_mi_entel_app@2x</title>
    <desc>Created with Sketch.</desc>
    <defs>
        <polygon id="path-1" points="0 0.732461817 154.619161 0.732461817 154.619161 138.225724 0 138.225724"></polygon>
    </defs>
    <g id="Page-1" stroke="none" stroke-width="1" fill="none" fill-rule="evenodd">
        <g id="ic_mi_entel_app" transform="translate(0.000000, -1.000000)">
            <g id="Group-8">
                <g id="Group-3" transform="translate(0.000000, 0.284583)">
                    <mask id="mask-2" fill="white">
                        <use xlink:href="#path-1"></use>
                    </mask>
                    <g id="Clip-2"></g>
                    <path d="M1.47823696,49.0481227 L26.0559815,130.19703 C27.7122239,135.665094 33.1802595,139.037405 38.8015382,138.056609 L145.262812,119.492636 C150.872927,118.513872 154.879573,113.501142 154.606577,107.804396 L149.977826,11.5004148 C149.679459,5.28227127 144.421498,0.474847444 138.210589,0.743168774 L32.4515941,5.29345133 C10.3348715,6.24477241 -4.94579156,27.832443 1.47823696,49.0481227" id="Fill-1" fill="#005CFF" mask="url(#mask-2)"></path>
                </g>
                <path d="M112.072607,42.4335954 C111.167357,41.8014141 109.767873,41.9081328 108.964108,42.6490656 L103.783276,47.4026219 C102.977482,48.1506692 103.037358,49.2991658 103.921296,49.9435435 C103.921296,49.9435435 111.907186,55.82222 111.907186,68.4536498 C111.907186,80.4386692 103.501147,87.3276161 103.501147,87.3276161 C102.646639,88.0299269 102.615179,89.2099309 103.427062,89.9539128 L108.559181,94.6353069 C109.357871,95.3742069 110.771564,95.481942 111.676814,94.8578916 C111.676814,94.8578916 123.73227,86.6334363 123.73227,68.4953209 C123.73227,50.4873008 112.072607,42.4335954 112.072607,42.4335954" id="Fill-4" fill="#FF3D00"></path>
                <path d="M82.0422526,56.4959707 C80.4438569,53.0819884 77.1060007,50.5420831 72.0418771,50.5420831 C66.9858724,50.5420831 63.6520756,53.0819884 62.038457,56.4959707 C61.1118949,58.5907066 60.7658296,60.1366033 60.6562253,62.6643122 L83.4275289,62.6643122 C83.3128504,60.1366033 82.959681,58.5907066 82.0422526,56.4959707 Z M62.1815515,72.4824336 C62.1815515,72.4824336 60.6856561,72.3411584 60.6856561,73.5435225 C60.6856561,80.3907983 65.7761659,85.2653024 73.7600257,85.2653024 C79.6948944,85.2653024 82.2259413,83.8474681 85.8175111,81.1520584 C86.6517214,80.5188607 87.5387042,79.9374978 88.2206864,80.6743651 C88.6895491,81.1825495 94.9816466,87.0104074 94.9816466,87.0104074 C95.7691736,87.7472747 95.5530096,88.6325318 94.7086507,89.3500881 C93.8713958,90.0595135 84.4636953,97.3987117 73.6544808,97.3987117 C59.4992913,97.3987117 45.9367767,91.2212229 45.9367767,67.9575603 C45.9367767,49.2177547 56.5206935,38.635324 72.0418771,38.635324 C88.7240542,38.635324 98.1479924,50.3225474 98.1479924,66.0843928 L98.1479924,70.0705908 C98.1479924,71.6927152 96.8327411,72.4824336 95.7478617,72.4824336 L62.1815515,72.4824336 Z" id="Fill-6" fill="#FFFFFF"></path>
            </g>
        </g>
    </g>
</svg>