<?xml version="1.0" encoding="UTF-8"?>
<svg width="139px" height="138px" viewBox="0 0 139 138" version="1.1" xmlns="http://www.w3.org/2000/svg" xmlns:xlink="http://www.w3.org/1999/xlink">
    <!-- Generator: Sketch 52.2 (67145) - http://www.bohemiancoding.com/sketch -->
    <title>ic_onepay_app</title>
    <desc>Created with Sketch.</desc>
    <defs>
        <polygon id="path-1" points="2.73146979e-05 1.04751674 138.95 1.04751674 138.95 138.133333 2.73146979e-05 138.133333"></polygon>
    </defs>
    <g id="Page-1" stroke="none" stroke-width="1" fill="none" fill-rule="evenodd">
        <g id="ic_onepay_app" transform="translate(0.000000, -1.000000)">
            <g id="Group-3">
                <mask id="mask-2" fill="white">
                    <use xlink:href="#path-1"></use>
                </mask>
                <g id="Clip-2"></g>
                <path d="M69.3205625,119.146691 C97.16525,119.071149 119.613375,97.0324075 119.700875,69.6021492 C119.790563,42.0963492 97.2986875,19.8590408 69.4736875,19.8050825 C41.659625,19.7489658 19.0518125,42.0100158 19.040875,69.4445908 C19.0299375,96.8964325 41.489,119.051724 69.3205625,119.146691 M69.4255625,1.05564083 C81.5005625,1.05564083 93.573375,1.02542417 105.648375,1.08154083 C107.824938,1.0923325 110.0015,1.40744917 112.173688,1.6427075 C114.321813,1.8758075 116.375875,2.52762417 118.3665,3.31109917 C119.858375,3.90032417 121.286813,4.65574083 122.695563,5.4241075 C125.583063,6.98889917 128.081187,9.05226583 130.314625,11.4329075 C132.517437,13.7768575 134.293688,16.4121825 135.667438,19.2935575 C136.588375,21.2231075 137.290562,23.2389908 137.80025,25.3282575 C138.301187,27.3873075 138.39525,29.4808908 138.662125,31.5636825 C139.132438,35.2220575 138.88525,38.8825908 138.891813,42.5388075 C138.931187,63.5674492 138.935563,84.5960908 138.88525,105.624733 C138.878688,107.724791 138.474,109.831324 138.165562,111.920591 C137.990563,113.096883 137.73025,114.281808 137.3365,115.404141 C136.71525,117.173974 136.03275,118.935174 135.219,120.629466 C133.989625,123.176299 132.311813,125.449024 130.38025,127.531816 C128.398375,129.666408 126.213063,131.572216 123.688688,133.048516 C122.166188,133.939908 120.549625,134.680216 118.948375,135.435633 C116.968688,136.372349 114.870875,136.974524 112.703063,137.291799 C111.180563,137.516266 109.629625,137.576699 108.113688,137.833541 C105.204313,138.332116 102.281813,138.058008 99.37025,138.064483 C82.8065,138.096858 66.2405625,138.081749 49.6768125,138.068799 C47.30775,138.066641 44.9386875,137.950091 42.5718125,137.934983 C41.25275,137.928508 39.9315,138.073116 38.614625,138.064483 C36.4293125,138.051533 34.239625,138.038583 32.0630625,137.898291 C29.8843125,137.753683 27.694625,137.565908 25.550875,137.181724 C23.6280625,136.838549 21.7336875,136.281699 19.9530625,135.439949 C18.515875,134.760074 17.0261875,134.166533 15.672125,133.352841 C13.3336875,131.949924 11.179,130.285849 9.2561875,128.345508 C7.51275,126.586466 5.999,124.652599 4.7105625,122.561174 C3.894625,121.240274 3.194625,119.828724 2.6236875,118.386958 C1.908375,116.573958 1.287125,114.709158 0.8015,112.824933 C0.464625,111.519141 0.3793125,110.139966 0.263375,108.788849 C-0.1544375,103.949866 0.0511875,99.1000908 0.0468125,94.2546325 C0.0249375,74.0785325 0.018375,53.9024325 0.062125,33.7284908 C0.0686875,31.5442575 0.403375,29.3578658 0.6505625,27.1822658 C0.8868125,25.1016325 1.532125,23.1073325 2.3174375,21.1777825 C2.9211875,19.6906908 3.7130625,18.2748242 4.480875,16.8567992 C5.5855625,14.8193325 7.027125,13.0084908 8.59775,11.3077242 C10.5118125,9.23356583 12.6730625,7.42919917 15.112125,5.99606583 C16.64775,5.0938825 18.2511875,4.27371583 19.894,3.58304917 C21.385875,2.95497417 22.9674375,2.51899083 24.5249375,2.05494917 C26.7255625,1.40097417 29.00275,1.2801075 31.2799375,1.17219083 C32.2161875,1.12686583 33.1524375,1.0599575 34.0886875,1.0599575 C45.868375,1.05132417 57.6480625,1.05564083 69.4255625,1.05564083" id="Fill-1" fill="#FFBA46" mask="url(#mask-2)"></path>
            </g>
            <path d="M42.9333333,69.6923216 C43.0479607,70.7557391 43.1647925,72.4252608 43.4249084,74.0707133 C43.6365282,75.4076435 43.9275054,76.7489499 44.3485406,78.0333657 C44.9944218,80.0004692 45.8497184,81.8844248 46.9188392,83.6808564 C48.4949657,86.3306476 50.4392224,88.6719165 52.80231,90.6499606 C55.3263167,92.7636669 58.1567313,94.3412883 61.3023711,95.3959533 C63.9013266,96.2668178 66.5686176,96.6650524 69.2733829,96.6431714 C71.4513031,96.6300427 73.6204059,96.3587181 75.7454212,95.7416734 C77.6037074,95.2034004 79.393658,94.5229007 81.0755944,93.5995218 C84.4526934,91.7440115 87.2919254,89.2517635 89.6043124,86.1796686 C91.7293277,83.3548292 93.239323,80.2214674 94.191612,76.8386621 C94.8485151,74.493017 95.2519153,72.086105 95.1946016,69.6485596 C95.1483098,67.6923966 94.9300769,65.7296693 94.7008221,63.7822587 C94.4605455,61.747324 93.8080512,59.8042897 93.0056595,57.9290864 C92.0357355,55.6644011 90.8101043,53.5397542 89.2758609,51.5835912 C87.7173694,49.5946067 85.92301,47.8725706 83.8949871,46.3737209 C82.2549338,45.1615125 80.4980487,44.1418571 78.6000838,43.4066549 C77.1958984,42.8618175 75.7321949,42.4373258 74.2618783,42.0937938 C73.0979695,41.8224692 71.8855645,41.7480737 70.6929989,41.5949066 C68.759764,41.3520273 66.8331423,41.5664613 64.9351774,41.8509145 C62.5346155,42.2119513 60.2354548,42.9843512 58.0531258,44.0718378 C56.0647816,45.0674241 54.1668167,46.2161776 52.5576246,47.7500369 C51.199731,49.041017 49.8881292,50.3976401 48.697768,51.8374111 C47.3024001,53.5288137 46.2178487,55.4390266 45.380187,57.4695851 C44.9282906,58.5702003 44.4918248,59.6861322 44.1743952,60.8283213 C43.7643818,62.3118543 43.4028647,63.8172683 43.1714056,65.335811 C42.9840339,66.5655242 43.0237126,67.830247 42.9333333,69.6923216 M69.0161589,119.466667 C41.1459593,119.370308 18.655718,96.8902746 18.6666707,69.0338668 C18.6754328,41.1971688 41.3168211,18.6120168 69.167306,18.666766 C97.030934,18.7237052 119.554033,41.2847675 119.466412,69.1937345 C119.37879,97.0260526 96.8995018,119.387828 69.0161589,119.466667" id="Fill-4" fill="#1E1819"></path>
            <path d="M42.9333333,69.7019102 C43.0237126,67.8112981 42.9840339,66.5271925 43.1714056,65.2786331 C43.4028647,63.7368178 43.7643818,62.2083323 44.1743952,60.7020631 C44.4918248,59.5423692 44.9282906,58.4093349 45.380187,57.291852 C46.2178487,55.2301739 47.3024001,53.2906857 48.697768,51.5733612 C49.8881292,50.1115247 51.199731,48.7341105 52.5576246,47.4233453 C54.1668167,45.8659785 56.0647816,44.6996196 58.0531258,43.6887753 C60.2354548,42.5846222 62.5346155,41.8003848 64.9351774,41.4338148 C66.8331423,41.1450022 68.759764,40.9272819 70.6929989,41.1738834 C71.8855645,41.329398 73.0979695,41.4049336 74.2618783,41.6804164 C75.7321949,42.0292133 77.1958984,42.4602106 78.6000838,43.013398 C80.4980487,43.7598676 82.2549338,44.79515 83.8949871,46.0259363 C85.92301,47.5477569 87.7173694,49.2961843 89.2758609,51.3156514 C90.8101043,53.3017939 92.0357355,55.4590024 93.0056595,57.7583955 C93.8080512,59.6623375 94.4605455,61.6351502 94.7008221,63.7012716 C94.9300769,65.6785276 95.1483098,67.671335 95.1946016,69.6574775 C95.2519153,72.1323799 94.8485151,74.5761794 94.191612,76.9577731 C93.239323,80.3924222 91.7293277,83.5738049 89.6043124,86.4419368 C87.2919254,89.5611137 84.4526934,92.091557 81.0755944,93.9755042 C79.393658,94.9130346 77.6037074,95.6039633 75.7454212,96.1504858 C73.6204059,96.7769871 71.4513031,97.05247 69.2733829,97.0657998 C66.5686176,97.0880161 63.9013266,96.6836784 61.3023711,95.7994673 C58.1567313,94.7286388 55.3263167,93.1268393 52.80231,90.980739 C50.4392224,88.9723801 48.4949657,86.5952297 46.9188392,83.9048286 C45.8497184,82.0808655 44.9944218,80.168037 44.3485406,78.1707863 C43.9275054,76.866686 43.6365282,75.5048232 43.4249084,74.1474037 C43.1647925,72.4767335 43.0479607,70.7816253 42.9333333,69.7019102" id="Fill-6" fill="#FFBA46"></path>
        </g>
    </g>
</svg>