<?xml version="1.0" encoding="UTF-8"?>
<svg width="651px" height="333px" viewBox="0 0 651 333" version="1.1" xmlns="http://www.w3.org/2000/svg" xmlns:xlink="http://www.w3.org/1999/xlink">
    <!-- Generator: Sketch 52.2 (67145) - http://www.bohemiancoding.com/sketch -->
    <title>irregular_shapes@2x</title>
    <desc>Created with Sketch.</desc>
    <g id="irregular_shapes" stroke="none" stroke-width="1" fill="none" fill-rule="evenodd">
        <g id="Group-7" transform="translate(-300.000000, -1.000000)">
            <path d="M216.139313,27.1618193 C218.933893,24.6146272 223.752837,22.4998682 230.596146,20.8175422 L345.334067,20.8275759 L683.834662,20.8571772 L694.72975,24.9125272 C695.753106,25.293439 696.623632,25.9988855 697.208338,26.9210955 L702.468356,35.2173078 L702.490852,292.713684 L283.880017,339.232137 C276.120086,340.094465 268.996297,334.859833 267.500989,327.196662 L210.917705,37.2179996 C211.604197,33.0610714 213.344734,29.7090113 216.139313,27.1618193 Z" id="Rectangle-26" fill="#42E8B4" fill-rule="nonzero" transform="translate(456.704278, 180.071246) scale(-1, 1) rotate(5.000000) translate(-456.704278, -180.071246) "></path>
            <path d="M6.0545999e-09,327.489559 L1.85758849e-08,293.344952 L0,64.605729 C-9.2897167e-10,51.0163601 9.06498421,40 20.2472089,40 L914.830599,40 C923.069427,40 929.961375,46.2563922 930.756006,54.4568089 L950.718206,260.462495 C953.333785,287.454719 937.448579,311.913022 915.237606,315.091645 C914.580043,315.185749 913.920681,315.26024 913.260113,315.315051 L16.5023026,343.481673 C7.67010228,343.759087 0.285300661,336.824062 0.00788657295,327.991862 C0.00262918561,327.824479 5.99318314e-09,327.657024 6.05459505e-09,327.489559 Z" id="Rectangle-11" fill="#0067FF"></path>
        </g>
    </g>
</svg>